M48
; DRILL file KiCad 10.0.4 date 2026-09-05T11:12:18
; FORMAT={-:-/ absolute / metric / decimal}
; #@! TF.CreationDate,2026-09-05T11:12:18-05:00
; #@! TF.GenerationSoftware,Kicad,Pcbnew,10.0.4
; #@! TF.FileFunction,Plated,1,2,PTH
FMAT,2
METRIC
; #@! TA.AperFunction,Plated,PTH,ComponentDrill
T1C0.889
; #@! TA.AperFunction,Plated,PTH,ComponentDrill
T2C1.000
; #@! TA.AperFunction,Plated,PTH,ComponentDrill
T3C1.500
%
G90
G05
T1
X76.26Y-31.76
X76.26Y-34.3
X76.26Y-36.84
X76.26Y-39.38
X76.26Y-41.92
X76.26Y-44.46
X76.26Y-47.0
X91.5Y-31.76
X91.5Y-34.3
X91.5Y-36.84
X91.5Y-39.38
X91.5Y-41.92
X91.5Y-44.46
X91.5Y-47.0
T2
X80.2Y-28.0
X87.8Y-28.0
X93.8Y-30.5
X96.34Y-30.5
X98.88Y-30.5
X101.42Y-30.5
X103.96Y-30.5
X106.5Y-30.5
X109.04Y-30.5
X111.58Y-30.5
T3
X57.19Y-39.46
X63.54Y-36.92
X103.19Y-39.46
X109.54Y-36.92
M30
