%TF.GenerationSoftware,KiCad,Pcbnew,10.0.4*%
%TF.CreationDate,2026-09-05T11:12:26-05:00*%
%TF.ProjectId,BearBlare,42656172-426c-4617-9265-2e6b69636164,rev?*%
%TF.SameCoordinates,Original*%
%TF.FileFunction,Copper,L1,Top*%
%TF.FilePolarity,Positive*%
%FSLAX46Y46*%
G04 Gerber Fmt 4.6, Leading zero omitted, Abs format (unit mm)*
G04 Created by KiCad (PCBNEW 10.0.4) date 2026-09-05 11:12:26*
%MOMM*%
%LPD*%
G01*
G04 APERTURE LIST*
G04 Aperture macros list*
%AMRoundRect*
0 Rectangle with rounded corners*
0 $1 Rounding radius*
0 $2 $3 $4 $5 $6 $7 $8 $9 X,Y pos of 4 corners*
0 Add a 4 corners polygon primitive as box body*
4,1,4,$2,$3,$4,$5,$6,$7,$8,$9,$2,$3,0*
0 Add four circle primitives for the rounded corners*
1,1,$1+$1,$2,$3*
1,1,$1+$1,$4,$5*
1,1,$1+$1,$6,$7*
1,1,$1+$1,$8,$9*
0 Add four rect primitives between the rounded corners*
20,1,$1+$1,$2,$3,$4,$5,0*
20,1,$1+$1,$4,$5,$6,$7,0*
20,1,$1+$1,$6,$7,$8,$9,0*
20,1,$1+$1,$8,$9,$2,$3,0*%
G04 Aperture macros list end*
%TA.AperFunction,ComponentPad*%
%ADD10C,2.200000*%
%TD*%
%TA.AperFunction,SMDPad,CuDef*%
%ADD11RoundRect,0.152400X1.063600X0.609600X-1.063600X0.609600X-1.063600X-0.609600X1.063600X-0.609600X0*%
%TD*%
%TA.AperFunction,ComponentPad*%
%ADD12C,1.524000*%
%TD*%
%TA.AperFunction,SMDPad,CuDef*%
%ADD13RoundRect,0.152400X-1.063600X-0.609600X1.063600X-0.609600X1.063600X0.609600X-1.063600X0.609600X0*%
%TD*%
%TA.AperFunction,ComponentPad*%
%ADD14R,1.700000X1.700000*%
%TD*%
%TA.AperFunction,ComponentPad*%
%ADD15C,1.700000*%
%TD*%
%TA.AperFunction,ComponentPad*%
%ADD16R,2.000000X2.000000*%
%TD*%
%TA.AperFunction,ComponentPad*%
%ADD17C,2.000000*%
%TD*%
%TA.AperFunction,Conductor*%
%ADD18C,0.200000*%
%TD*%
G04 APERTURE END LIST*
D10*
%TO.P,SW1,1,1_1*%
%TO.N,GND*%
X63540000Y-36920000D03*
%TO.P,SW1,2,2_2*%
%TO.N,Net-(U1-D0)*%
X57190000Y-39460000D03*
%TD*%
%TO.P,SW2,1,1_1*%
%TO.N,GND*%
X109540000Y-36920000D03*
%TO.P,SW2,2,2_2*%
%TO.N,Net-(U1-D1)*%
X103190000Y-39460000D03*
%TD*%
D11*
%TO.P,U1,1,D0_1*%
%TO.N,Net-(U1-D0)*%
X75425000Y-31760000D03*
D12*
X76260000Y-31760000D03*
D11*
%TO.P,U1,2,D1_2*%
%TO.N,Net-(U1-D1)*%
X75425000Y-34300000D03*
D12*
X76260000Y-34300000D03*
D11*
%TO.P,U1,3,D2_3*%
%TO.N,/DC*%
X75425000Y-36840000D03*
D12*
X76260000Y-36840000D03*
D11*
%TO.P,U1,4,D3_4*%
%TO.N,/CS*%
X75425000Y-39380000D03*
D12*
X76260000Y-39380000D03*
D11*
%TO.P,U1,5,D4_5*%
%TO.N,/BL*%
X75425000Y-41920000D03*
D12*
X76260000Y-41920000D03*
D11*
%TO.P,U1,6,D5_6*%
%TO.N,unconnected-(U1-D5-Pad6)_1*%
X75425000Y-44460000D03*
D12*
%TO.N,unconnected-(U1-D5-Pad6)*%
X76260000Y-44460000D03*
D11*
%TO.P,U1,7,D6_7*%
%TO.N,unconnected-(U1-D6-Pad7)*%
X75425000Y-47000000D03*
D12*
%TO.N,unconnected-(U1-D6-Pad7)_1*%
X76260000Y-47000000D03*
%TO.P,U1,8,D7_8*%
%TO.N,Net-(BZ1-+)*%
X91500000Y-47000000D03*
D13*
X92335000Y-47000000D03*
D12*
%TO.P,U1,9,D8_9*%
%TO.N,/RST*%
X91500000Y-44460000D03*
D13*
X92335000Y-44460000D03*
D12*
%TO.P,U1,10,D9/BOOT_10*%
%TO.N,/SCL*%
X91500000Y-41920000D03*
D13*
X92335000Y-41920000D03*
D12*
%TO.P,U1,11,D10_11*%
%TO.N,/SDA*%
X91500000Y-39380000D03*
D13*
X92335000Y-39380000D03*
D12*
%TO.P,U1,12,3V3_OUT_12*%
%TO.N,+3.3V*%
X91500000Y-36840000D03*
D13*
X92335000Y-36840000D03*
D12*
%TO.P,U1,13,GND_13*%
%TO.N,GND*%
X91500000Y-34300000D03*
D13*
X92335000Y-34300000D03*
D12*
%TO.P,U1,14,VBUS_14*%
%TO.N,unconnected-(U1-VBUS-Pad14)*%
X91500000Y-31760000D03*
D13*
%TO.N,unconnected-(U1-VBUS-Pad14)_1*%
X92335000Y-31760000D03*
%TD*%
D14*
%TO.P,J1,1,Pin_1_1*%
%TO.N,GND*%
X111580000Y-30500000D03*
D15*
%TO.P,J1,2,Pin_2_2*%
%TO.N,+3.3V*%
X109040000Y-30500000D03*
%TO.P,J1,3,Pin_3_3*%
%TO.N,/SCL*%
X106500000Y-30500000D03*
%TO.P,J1,4,Pin_4_4*%
%TO.N,/SDA*%
X103960000Y-30500000D03*
%TO.P,J1,5,Pin_5_5*%
%TO.N,/RST*%
X101420000Y-30500000D03*
%TO.P,J1,6,Pin_6_6*%
%TO.N,/DC*%
X98880000Y-30500000D03*
%TO.P,J1,7,Pin_7_7*%
%TO.N,/CS*%
X96340000Y-30500000D03*
%TO.P,J1,8,Pin_8_8*%
%TO.N,/BL*%
X93800000Y-30500000D03*
%TD*%
D16*
%TO.P,BZ1,1,+_1*%
%TO.N,Net-(BZ1-+)*%
X87800000Y-28000000D03*
D17*
%TO.P,BZ1,2,-_2*%
%TO.N,GND*%
X80200000Y-28000000D03*
%TD*%
%TO.N,Net-(U1-D1)*%
D18*
X99230000Y-35500000D02*
X77460000Y-35500000D01*
X77460000Y-35500000D02*
X76260000Y-34300000D01*
X103190000Y-39460000D02*
X99230000Y-35500000D01*
%TO.N,Net-(U1-D0)*%
X71240000Y-31760000D02*
X76260000Y-31760000D01*
X57190000Y-39460000D02*
X63540000Y-39460000D01*
X63540000Y-39460000D02*
X71240000Y-31760000D01*
%TO.N,GND*%
X72460000Y-28000000D02*
X63540000Y-36920000D01*
X80200000Y-28000000D02*
X72460000Y-28000000D01*
X109540000Y-32540000D02*
X111580000Y-30500000D01*
X109540000Y-36920000D02*
X109540000Y-32540000D01*
X91500000Y-34300000D02*
X106920000Y-34300000D01*
X106920000Y-34300000D02*
X109540000Y-36920000D01*
X80200000Y-28000000D02*
X86500000Y-34300000D01*
X86500000Y-34300000D02*
X91500000Y-34300000D01*
%TD*%
M02*
