%TF.GenerationSoftware,KiCad,Pcbnew,10.0.4*%
%TF.CreationDate,2026-09-05T11:12:26-05:00*%
%TF.ProjectId,BearBlare,42656172-426c-4617-9265-2e6b69636164,rev?*%
%TF.SameCoordinates,Original*%
%TF.FileFunction,Legend,Top*%
%TF.FilePolarity,Positive*%
%FSLAX46Y46*%
G04 Gerber Fmt 4.6, Leading zero omitted, Abs format (unit mm)*
G04 Created by KiCad (PCBNEW 10.0.4) date 2026-09-05 11:12:26*
%MOMM*%
%LPD*%
G01*
G04 APERTURE LIST*
%ADD10C,0.150000*%
%ADD11C,0.101600*%
%ADD12C,0.120000*%
%ADD13C,0.127000*%
%ADD14C,0.100000*%
%ADD15C,0.504000*%
G04 APERTURE END LIST*
D10*
X59666667Y-34533200D02*
X59809524Y-34580819D01*
X59809524Y-34580819D02*
X60047619Y-34580819D01*
X60047619Y-34580819D02*
X60142857Y-34533200D01*
X60142857Y-34533200D02*
X60190476Y-34485580D01*
X60190476Y-34485580D02*
X60238095Y-34390342D01*
X60238095Y-34390342D02*
X60238095Y-34295104D01*
X60238095Y-34295104D02*
X60190476Y-34199866D01*
X60190476Y-34199866D02*
X60142857Y-34152247D01*
X60142857Y-34152247D02*
X60047619Y-34104628D01*
X60047619Y-34104628D02*
X59857143Y-34057009D01*
X59857143Y-34057009D02*
X59761905Y-34009390D01*
X59761905Y-34009390D02*
X59714286Y-33961771D01*
X59714286Y-33961771D02*
X59666667Y-33866533D01*
X59666667Y-33866533D02*
X59666667Y-33771295D01*
X59666667Y-33771295D02*
X59714286Y-33676057D01*
X59714286Y-33676057D02*
X59761905Y-33628438D01*
X59761905Y-33628438D02*
X59857143Y-33580819D01*
X59857143Y-33580819D02*
X60095238Y-33580819D01*
X60095238Y-33580819D02*
X60238095Y-33628438D01*
X60571429Y-33580819D02*
X60809524Y-34580819D01*
X60809524Y-34580819D02*
X61000000Y-33866533D01*
X61000000Y-33866533D02*
X61190476Y-34580819D01*
X61190476Y-34580819D02*
X61428572Y-33580819D01*
X62333333Y-34580819D02*
X61761905Y-34580819D01*
X62047619Y-34580819D02*
X62047619Y-33580819D01*
X62047619Y-33580819D02*
X61952381Y-33723676D01*
X61952381Y-33723676D02*
X61857143Y-33818914D01*
X61857143Y-33818914D02*
X61761905Y-33866533D01*
X95738095Y-44304819D02*
X95738095Y-43304819D01*
X95738095Y-43781009D02*
X96309523Y-43781009D01*
X96309523Y-44304819D02*
X96309523Y-43304819D01*
X97214285Y-43638152D02*
X97214285Y-44304819D01*
X96976190Y-43257200D02*
X96738095Y-43971485D01*
X96738095Y-43971485D02*
X97357142Y-43971485D01*
X105666667Y-34533200D02*
X105809524Y-34580819D01*
X105809524Y-34580819D02*
X106047619Y-34580819D01*
X106047619Y-34580819D02*
X106142857Y-34533200D01*
X106142857Y-34533200D02*
X106190476Y-34485580D01*
X106190476Y-34485580D02*
X106238095Y-34390342D01*
X106238095Y-34390342D02*
X106238095Y-34295104D01*
X106238095Y-34295104D02*
X106190476Y-34199866D01*
X106190476Y-34199866D02*
X106142857Y-34152247D01*
X106142857Y-34152247D02*
X106047619Y-34104628D01*
X106047619Y-34104628D02*
X105857143Y-34057009D01*
X105857143Y-34057009D02*
X105761905Y-34009390D01*
X105761905Y-34009390D02*
X105714286Y-33961771D01*
X105714286Y-33961771D02*
X105666667Y-33866533D01*
X105666667Y-33866533D02*
X105666667Y-33771295D01*
X105666667Y-33771295D02*
X105714286Y-33676057D01*
X105714286Y-33676057D02*
X105761905Y-33628438D01*
X105761905Y-33628438D02*
X105857143Y-33580819D01*
X105857143Y-33580819D02*
X106095238Y-33580819D01*
X106095238Y-33580819D02*
X106238095Y-33628438D01*
X106571429Y-33580819D02*
X106809524Y-34580819D01*
X106809524Y-34580819D02*
X107000000Y-33866533D01*
X107000000Y-33866533D02*
X107190476Y-34580819D01*
X107190476Y-34580819D02*
X107428572Y-33580819D01*
X107761905Y-33676057D02*
X107809524Y-33628438D01*
X107809524Y-33628438D02*
X107904762Y-33580819D01*
X107904762Y-33580819D02*
X108142857Y-33580819D01*
X108142857Y-33580819D02*
X108238095Y-33628438D01*
X108238095Y-33628438D02*
X108285714Y-33676057D01*
X108285714Y-33676057D02*
X108333333Y-33771295D01*
X108333333Y-33771295D02*
X108333333Y-33866533D01*
X108333333Y-33866533D02*
X108285714Y-34009390D01*
X108285714Y-34009390D02*
X107714286Y-34580819D01*
X107714286Y-34580819D02*
X108333333Y-34580819D01*
X70738095Y-44804819D02*
X70738095Y-43804819D01*
X70738095Y-44281009D02*
X71309523Y-44281009D01*
X71309523Y-44804819D02*
X71309523Y-43804819D01*
X71690476Y-43804819D02*
X72309523Y-43804819D01*
X72309523Y-43804819D02*
X71976190Y-44185771D01*
X71976190Y-44185771D02*
X72119047Y-44185771D01*
X72119047Y-44185771D02*
X72214285Y-44233390D01*
X72214285Y-44233390D02*
X72261904Y-44281009D01*
X72261904Y-44281009D02*
X72309523Y-44376247D01*
X72309523Y-44376247D02*
X72309523Y-44614342D01*
X72309523Y-44614342D02*
X72261904Y-44709580D01*
X72261904Y-44709580D02*
X72214285Y-44757200D01*
X72214285Y-44757200D02*
X72119047Y-44804819D01*
X72119047Y-44804819D02*
X71833333Y-44804819D01*
X71833333Y-44804819D02*
X71738095Y-44757200D01*
X71738095Y-44757200D02*
X71690476Y-44709580D01*
X112238095Y-21804819D02*
X112238095Y-20804819D01*
X112238095Y-21281009D02*
X112809523Y-21281009D01*
X112809523Y-21804819D02*
X112809523Y-20804819D01*
X113238095Y-20900057D02*
X113285714Y-20852438D01*
X113285714Y-20852438D02*
X113380952Y-20804819D01*
X113380952Y-20804819D02*
X113619047Y-20804819D01*
X113619047Y-20804819D02*
X113714285Y-20852438D01*
X113714285Y-20852438D02*
X113761904Y-20900057D01*
X113761904Y-20900057D02*
X113809523Y-20995295D01*
X113809523Y-20995295D02*
X113809523Y-21090533D01*
X113809523Y-21090533D02*
X113761904Y-21233390D01*
X113761904Y-21233390D02*
X113190476Y-21804819D01*
X113190476Y-21804819D02*
X113809523Y-21804819D01*
X54238095Y-21804819D02*
X54238095Y-20804819D01*
X54238095Y-21281009D02*
X54809523Y-21281009D01*
X54809523Y-21804819D02*
X54809523Y-20804819D01*
X55809523Y-21804819D02*
X55238095Y-21804819D01*
X55523809Y-21804819D02*
X55523809Y-20804819D01*
X55523809Y-20804819D02*
X55428571Y-20947676D01*
X55428571Y-20947676D02*
X55333333Y-21042914D01*
X55333333Y-21042914D02*
X55238095Y-21090533D01*
D11*
X73258479Y-40138809D02*
X73772526Y-40138809D01*
X73772526Y-40138809D02*
X73833002Y-40108571D01*
X73833002Y-40108571D02*
X73863241Y-40078333D01*
X73863241Y-40078333D02*
X73893479Y-40017857D01*
X73893479Y-40017857D02*
X73893479Y-39896904D01*
X73893479Y-39896904D02*
X73863241Y-39836428D01*
X73863241Y-39836428D02*
X73833002Y-39806190D01*
X73833002Y-39806190D02*
X73772526Y-39775952D01*
X73772526Y-39775952D02*
X73258479Y-39775952D01*
X73893479Y-39140952D02*
X73893479Y-39503809D01*
X73893479Y-39322381D02*
X73258479Y-39322381D01*
X73258479Y-39322381D02*
X73349193Y-39382857D01*
X73349193Y-39382857D02*
X73409669Y-39443333D01*
X73409669Y-39443333D02*
X73439907Y-39503809D01*
%TO.C,SW1*%
D12*
X54015000Y-35015000D02*
X67985000Y-35015000D01*
X54015000Y-48985000D02*
X54015000Y-35015000D01*
X67985000Y-35015000D02*
X67985000Y-48985000D01*
X67985000Y-48985000D02*
X54015000Y-48985000D01*
%TO.C,SW2*%
X100015000Y-35015000D02*
X113985000Y-35015000D01*
X100015000Y-48985000D02*
X100015000Y-35015000D01*
X113985000Y-35015000D02*
X113985000Y-48985000D01*
X113985000Y-48985000D02*
X100015000Y-48985000D01*
%TO.C,U1*%
D13*
X74990000Y-47889000D02*
X74990000Y-30744000D01*
X76895000Y-49794000D02*
X90865000Y-49794000D01*
X79385000Y-28839000D02*
X79388728Y-27828728D01*
X79888728Y-27329000D02*
X87884000Y-27329000D01*
X88384000Y-27829000D02*
X88384000Y-28839000D01*
D14*
X90865000Y-28839000D02*
X76895000Y-28839000D01*
D13*
X90865000Y-28839000D02*
X76895000Y-28839000D01*
X92770000Y-47889000D02*
X92770000Y-30744000D01*
X74990000Y-30744000D02*
G75*
G02*
X76895000Y-28839000I1905000J0D01*
G01*
X76895000Y-49794000D02*
G75*
G02*
X74990000Y-47889000I1J1905001D01*
G01*
X79388728Y-27828728D02*
G75*
G02*
X79888728Y-27329028I499972J-272D01*
G01*
X87884000Y-27329000D02*
G75*
G02*
X88384000Y-27829000I0J-500000D01*
G01*
X90865000Y-28839000D02*
G75*
G02*
X92770000Y-30744000I0J-1905000D01*
G01*
X92770000Y-47889000D02*
G75*
G02*
X90865000Y-49794000I-1905001J1D01*
G01*
D15*
X75132000Y-29130000D02*
G75*
G02*
X74628000Y-29130000I-252000J0D01*
G01*
X74628000Y-29130000D02*
G75*
G02*
X75132000Y-29130000I252000J0D01*
G01*
X76275000Y-30010000D02*
G75*
G02*
X75771000Y-30010000I-252000J0D01*
G01*
X75771000Y-30010000D02*
G75*
G02*
X76275000Y-30010000I252000J0D01*
G01*
%TD*%
M02*
